<svg xmlns="http://www.w3.org/2000/svg" width="22.857" height="16" viewBox="0 0 22.857 16">
  <path id="Icon_awesome-user-friends" data-name="Icon awesome-user-friends" d="M6.857,9.5a4,4,0,1,0-4-4A4,4,0,0,0,6.857,9.5ZM9.6,10.643H9.3a5.523,5.523,0,0,1-4.893,0h-.3A4.115,4.115,0,0,0,0,14.757v1.029A1.715,1.715,0,0,0,1.714,17.5H12a1.715,1.715,0,0,0,1.714-1.714V14.757A4.115,4.115,0,0,0,9.6,10.643ZM17.143,9.5a3.429,3.429,0,1,0-3.429-3.429A3.429,3.429,0,0,0,17.143,9.5Zm1.714,1.143h-.136a4.5,4.5,0,0,1-3.157,0h-.136a3.967,3.967,0,0,0-1.989.55,5.227,5.227,0,0,1,1.418,3.564v1.371c0,.079-.018.154-.021.229h6.307a1.715,1.715,0,0,0,1.714-1.714,4,4,0,0,0-4-4Z" transform="translate(0 -1.5)" fill="#fff"/>
</svg>
